<svg width="345" height="272" viewBox="0 0 345 272" fill="none" xmlns="http://www.w3.org/2000/svg">
<path opacity="0.7" d="M329.362 9.26113L8.30817 29.732L23.6613 270.523L344.715 250.052L329.362 9.26113Z" fill="#DFE4EC"/>
<path d="M321.054 0.492091L0 20.9629L15.3531 261.754L336.407 241.283L321.054 0.492091Z" fill="url(#paint0_linear_1_266)"/>
<path d="M27.2242 34.7251L34.6055 150.49" stroke="#2B6FC9" stroke-width="3.09333" stroke-linecap="round"/>
<path d="M141.741 32.0728L49.1288 37.9778L56.1165 147.568L148.728 141.663L141.741 32.0728Z" stroke="#2B6FC9" stroke-width="3.09333"/>
<path d="M49.1288 37.9778L148.728 141.663M141.741 32.0728L56.1165 147.568" stroke="#2B6FC9" stroke-width="3.09333"/>
<path d="M55.6967 43.7583L94.298 90.1159L63.096 135.5M136.009 39.4124L103.559 89.5254L141.964 132.796" stroke="#FF6157" stroke-width="3.09333" stroke-linecap="round"/>
<path d="M58.6025 52.8717L84.594 83.7604M58.4705 62.9539L81.0796 89.4088M59.9312 73.7094L77.5161 94.2854M59.8483 84.5633L74.0017 99.9338M60.5372 95.368L70.5365 106.354M61.9979 106.123L68.5165 111.132M134.383 50.3646L112.328 81.2171M135.844 61.1201L116.482 85.6016M136.533 71.9248L120.636 89.9862M137.222 82.7295L124.84 95.1425M137.188 94.3552L129.043 100.299M137.926 105.932L133.246 105.455" stroke="#FF6157" stroke-width="2.32"/>
<path d="M286.061 22.8707L157.948 31.0394L164.935 140.63L293.048 132.461L286.061 22.8707Z" stroke="#2B6FC9" stroke-width="3.09333"/>
<path d="M157.948 31.0394L293.048 132.461M286.061 22.8707L164.935 140.63" stroke="#FF6157" stroke-width="3.09333"/>
<path d="M42.7324 168.569L235.674 156.267M43.8642 186.32L278.481 171.36M44.996 204.07L261.862 190.243M46.1278 221.821L196.622 212.225" stroke="#2B6FC9" stroke-width="3.86666" stroke-linecap="round"/>
<path d="M301.487 33.8982C302.552 33.8303 303.361 32.9114 303.293 31.8458C303.225 30.7802 302.306 29.9714 301.241 30.0394C300.175 30.1073 299.366 31.0262 299.434 32.0918C299.502 33.1574 300.421 33.9661 301.487 33.8982Z" fill="#2B6FC9"/>
<defs>
<linearGradient id="paint0_linear_1_266" x1="0" y1="20.9629" x2="15.3531" y2="261.754" gradientUnits="userSpaceOnUse">
<stop stop-color="white"/>
<stop offset="1" stop-color="#FCFCFA"/>
</linearGradient>
</defs>
</svg>
