<svg xmlns="http://www.w3.org/2000/svg" width="40" height="40" viewBox="0 0 40 40">
  <path fill="#3FC09E" fill-rule="evenodd" d="M0 40h16.507c3.305 0 6.339-.505 9.1-1.514 2.761-1.01 5.14-2.41 7.135-4.2a18.72 18.72 0 0 0 4.625-6.315C38.456 25.552 39 22.933 39 20c0-2.82-.544-5.448-1.633-7.886a18.643 18.643 0 0 0-4.625-6.343c-1.995-1.79-4.374-3.2-7.135-4.228C22.846.514 19.812 0 16.507 0H0v7h16.416c1.869 0 3.578.284 5.129.853 1.55.569 2.873 1.384 3.966 2.446a11.446 11.446 0 0 1 2.565 3.753c.616 1.44.924 3.052.924 4.834V19c0 1.744-.308 3.355-.924 4.834-.617 1.479-1.472 2.749-2.565 3.81-1.093 1.062-2.415 1.887-3.966 2.474-1.55.588-3.26.882-5.13.882H0v9z"/>
</svg>
